# xmcd CD database file
# Copyright (C) 1993-1998 Ti Kan
#
# Track frame offsets:
#  150
#  29687
#  78437
#  114900
#  159237
#  180062
#  223525
#
# Disc length: 3263 seconds
#
# Revision: 1
# Processed by: cddbd v1.4b41PL1 Copyright (c) Steve Scherf et al.
# Submitted via: CDWizzard Release:4.32
#
DISCID=490cbd07
DTITLE=Clark Terry and George Robert - The good things in life
DYEAR=1900
DGENRE=
TTITLE0=Somebody done stole my blues
TTITLE1=Perdido
TTITLE2=My secret love
TTITLE3=Dole
TTITLE4=Salt peanuts
TTITLE5=I don't want to be kissed
TTITLE6=steppin' on the roaches
EXTD=
EXTT0=
EXTT1=
EXTT2=
EXTT3=
EXTT4=
EXTT5=
EXTT6=
PLAYORDER=
